#Comment line ignore any data following # character 
#Hierarchical Translation and Rotation (.htr) file 
[Header]	
#Header keywords are followed by a single value 
FileType HTR		#Single word string
DataType HTRS		#Translation followed by rotation and scale data
FileVersion 1		#integer
NumSegments 64		#integer
NumFrames 3		#integer
DataFrameRate 30		#integer, data frame rate in this file
EulerRotationOrder ZYX
CalibrationUnits mm
RotationUnits Degrees
GlobalAxisofGravity Y
BoneLengthAxis Y
ScaleFactor 1.00
[SegmentNames&Hierarchy]
#CHILD	PARENT
Pinger_Root GLOBAL
Pelvis Pinger_Root
L_Hip Pelvis
R_Hip Pelvis
Rear_Leg01 Pelvis
Spine1 Pelvis
L_Leg01 L_Hip
L_Leg02 L_Leg01
L_Leg03 L_Leg02
L_Foot L_Leg03
L_Toe1_01 L_Foot
L_Toe2_01 L_Foot
L_Toe3_01 L_Foot
planeAlignerLeft L_Foot
L_Toe1_02 L_Toe1_01
L_Toe1_03 L_Toe1_02
L_Toe2_02 L_Toe2_01
L_Toe2_03 L_Toe2_02
L_Toe3_02 L_Toe3_01
L_Toe3_03 L_Toe3_02
planeLockWeightLeft planeAlignerLeft
R_Leg01 R_Hip
R_Leg02 R_Leg01
R_Leg03 R_Leg02
R_Foot R_Leg03
planeAlignerRight R_Foot
R_Toe1_01 R_Foot
R_Toe2_01 R_Foot
R_Toe3_01 R_Foot
planeLockWeightRight planeAlignerRight
R_Toe1_02 R_Toe1_01
R_Toe1_03 R_Toe1_02
R_Toe2_02 R_Toe2_01
R_Toe2_03 R_Toe2_02
R_Toe3_02 R_Toe3_01
R_Toe3_03 R_Toe3_02
Rear_Leg02 Rear_Leg01
Rear_Leg03 Rear_Leg02
Rear_Leg04 Rear_Leg03
Rear_Foot Rear_Leg04
planeAlignerCenter Rear_Foot
Rear_Toe1_01 Rear_Foot
Rear_Toe2_01 Rear_Foot
Rear_Toe3_01 Rear_Foot
planeLockWeightCenter planeAlignerCenter
Rear_Toe1_02 Rear_Toe1_01
Rear_Toe1_03 Rear_Toe1_02
Rear_Toe2_02 Rear_Toe2_01
Rear_Toe2_03 Rear_Toe2_02
Rear_Toe3_02 Rear_Toe3_01
Rear_Toe3_03 Rear_Toe3_02
Back_Bone Spine1
Head Spine1
Motor_Bone Back_Bone
Ping_Mechanism Back_Bone
BN_LookIK Head
bottomMouth Head
L_Mouth01 Head
L_mouthFront Head
mouthGun Head
R_Mouth01 Head
R_mouthFront Head
TopMouth Head
weapon_bone Head
[BasePosition]
#SegmentName Tx, Ty, Tz, Rx, Ry, Rz, BoneLength
Pinger_Root 0.000000 0.000000 0.000000 -90.000000 0.000000 0.000000 10.000000 
Pelvis 0.000000 0.000000 0.000000 0.000000 0.000000 0.000000 10.000000 
L_Hip 0.000000 0.000000 0.000000 0.000000 0.000000 0.000000 10.000000 
R_Hip 0.000000 0.000000 0.000000 0.000000 0.000000 0.000000 10.000000 
Rear_Leg01 0.000000 0.000000 0.000000 0.000000 0.000000 0.000000 10.000000 
Spine1 0.000000 0.000000 0.000000 0.000000 0.000000 0.000000 10.000000 
L_Leg01 0.000000 0.000000 0.000000 0.000000 0.000000 0.000000 10.000000 
L_Leg02 0.000000 0.000000 0.000000 0.000000 0.000000 0.000000 10.000000 
L_Leg03 0.000000 0.000000 0.000000 0.000000 0.000000 0.000000 10.000000 
L_Foot 0.000000 0.000000 0.000000 0.000000 0.000000 0.000000 10.000000 
L_Toe1_01 0.000000 0.000000 0.000000 0.000000 0.000000 0.000000 10.000000 
L_Toe2_01 0.000000 0.000000 0.000000 0.000000 0.000000 0.000000 10.000000 
L_Toe3_01 0.000000 0.000000 0.000000 0.000000 0.000000 0.000000 10.000000 
planeAlignerLeft 0.000000 0.000000 0.000000 0.000000 0.000000 0.000000 10.000000 
L_Toe1_02 0.000000 0.000000 0.000000 0.000000 0.000000 0.000000 10.000000 
L_Toe1_03 0.000000 0.000000 0.000000 0.000000 0.000000 0.000000 10.000000 
L_Toe2_02 0.000000 0.000000 0.000000 0.000000 0.000000 0.000000 10.000000 
L_Toe2_03 0.000000 0.000000 0.000000 0.000000 0.000000 0.000000 10.000000 
L_Toe3_02 0.000000 0.000000 0.000000 0.000000 0.000000 0.000000 10.000000 
L_Toe3_03 0.000000 0.000000 0.000000 0.000000 0.000000 0.000000 10.000000 
planeLockWeightLeft 0.000000 0.000000 0.000000 0.000000 0.000000 0.000000 10.000000 
R_Leg01 0.000000 0.000000 0.000000 0.000000 0.000000 0.000000 10.000000 
R_Leg02 0.000000 0.000000 0.000000 0.000000 0.000000 0.000000 10.000000 
R_Leg03 0.000000 0.000000 0.000000 0.000000 0.000000 0.000000 10.000000 
R_Foot 0.000000 0.000000 0.000000 0.000000 0.000000 0.000000 10.000000 
planeAlignerRight 0.000000 0.000000 0.000000 0.000000 0.000000 0.000000 10.000000 
R_Toe1_01 0.000000 0.000000 0.000000 0.000000 0.000000 0.000000 10.000000 
R_Toe2_01 0.000000 0.000000 0.000000 0.000000 0.000000 0.000000 10.000000 
R_Toe3_01 0.000000 0.000000 0.000000 0.000000 0.000000 0.000000 10.000000 
planeLockWeightRight 0.000000 0.000000 0.000000 0.000000 0.000000 0.000000 10.000000 
R_Toe1_02 0.000000 0.000000 0.000000 0.000000 0.000000 0.000000 10.000000 
R_Toe1_03 0.000000 0.000000 0.000000 0.000000 0.000000 0.000000 10.000000 
R_Toe2_02 0.000000 0.000000 0.000000 0.000000 0.000000 0.000000 10.000000 
R_Toe2_03 0.000000 0.000000 0.000000 0.000000 0.000000 0.000000 10.000000 
R_Toe3_02 0.000000 0.000000 0.000000 0.000000 0.000000 0.000000 10.000000 
R_Toe3_03 0.000000 0.000000 0.000000 0.000000 0.000000 0.000000 10.000000 
Rear_Leg02 0.000000 0.000000 0.000000 0.000000 0.000000 0.000000 10.000000 
Rear_Leg03 0.000000 0.000000 0.000000 0.000000 0.000000 0.000000 10.000000 
Rear_Leg04 0.000000 0.000000 0.000000 0.000000 0.000000 0.000000 10.000000 
Rear_Foot 0.000000 0.000000 0.000000 0.000000 0.000000 0.000000 10.000000 
planeAlignerCenter 0.000000 0.000000 0.000000 0.000000 0.000000 0.000000 10.000000 
Rear_Toe1_01 0.000000 0.000000 0.000000 0.000000 0.000000 0.000000 10.000000 
Rear_Toe2_01 0.000000 0.000000 0.000000 0.000000 0.000000 0.000000 10.000000 
Rear_Toe3_01 0.000000 0.000000 0.000000 0.000000 0.000000 0.000000 10.000000 
planeLockWeightCenter 0.000000 0.000000 0.000000 0.000000 0.000000 0.000000 10.000000 
Rear_Toe1_02 0.000000 0.000000 0.000000 0.000000 0.000000 0.000000 10.000000 
Rear_Toe1_03 0.000000 0.000000 0.000000 0.000000 0.000000 0.000000 10.000000 
Rear_Toe2_02 0.000000 0.000000 0.000000 0.000000 0.000000 0.000000 10.000000 
Rear_Toe2_03 0.000000 0.000000 0.000000 0.000000 0.000000 0.000000 10.000000 
Rear_Toe3_02 0.000000 0.000000 0.000000 0.000000 0.000000 0.000000 10.000000 
Rear_Toe3_03 0.000000 0.000000 0.000000 0.000000 0.000000 0.000000 10.000000 
Back_Bone 0.000000 0.000000 0.000000 0.000000 0.000000 0.000000 10.000000 
Head 0.000000 0.000000 0.000000 0.000000 0.000000 0.000000 10.000000 
Motor_Bone 0.000000 0.000000 0.000000 0.000000 0.000000 0.000000 10.000000 
Ping_Mechanism 0.000000 0.000000 0.000000 0.000000 0.000000 0.000000 10.000000 
BN_LookIK 0.000000 0.000000 0.000000 0.000000 0.000000 0.000000 10.000000 
bottomMouth 0.000000 0.000000 0.000000 0.000000 0.000000 0.000000 10.000000 
L_Mouth01 0.000000 0.000000 0.000000 0.000000 0.000000 0.000000 10.000000 
L_mouthFront 0.000000 0.000000 0.000000 0.000000 0.000000 0.000000 10.000000 
mouthGun 0.000000 0.000000 0.000000 0.000000 0.000000 0.000000 10.000000 
R_Mouth01 0.000000 0.000000 0.000000 0.000000 0.000000 0.000000 10.000000 
R_mouthFront 0.000000 0.000000 0.000000 0.000000 0.000000 0.000000 10.000000 
TopMouth 0.000000 0.000000 0.000000 0.000000 0.000000 0.000000 10.000000 
weapon_bone 0.000000 0.000000 0.000000 0.000000 0.000000 0.000000 10.000000 
#Beginning of Data. Separated by tabs
#Fr	Tx	Ty	Tz	Rx	Ry	Rz	SF
[Pinger_Root]
19 0.000012 899.999573 0.000000 -0.000075 -0.000000 -0.000020 899.999573
20 0.000016 1199.999512 0.000000 -0.000075 -0.000000 -0.000020 1199.999390
21 0.000020 1499.998779 0.000000 -0.000075 -0.000000 -0.000020 1499.998779
[Pelvis]
19 179.304886 1663.799194 4893.771484 -95.571106 -78.967560 87.062042 5171.979980
20 193.660873 1525.387085 4988.447754 -100.451736 -77.645493 91.417496 5220.049805
21 186.347519 1367.603394 5059.364746 -102.028679 -77.097267 92.784882 5244.257324
[L_Hip]
19 5.766392 125.831482 872.656799 178.273712 -80.858322 91.051956 881.701050
20 5.766392 125.831482 872.656799 -179.242462 -81.550919 88.421829 881.701050
21 5.766392 125.831482 872.656799 -178.919113 -81.630135 88.081352 881.701050
[R_Hip]
19 5.765438 125.836372 -872.654907 3.340979 81.147850 92.284683 881.699829
20 5.765438 125.836372 -872.654907 -0.342062 81.626419 88.733437 881.699829
21 5.765438 125.836372 -872.654907 -0.804328 81.680771 88.288727 881.699829
[Rear_Leg01]
19 -192.298416 -925.602966 -0.001907 174.374680 7.258663 -127.110931 945.367432
20 -192.298416 -925.602966 -0.001907 173.048141 6.184470 -135.746124 945.367432
21 -192.298416 -925.602966 -0.001907 172.255630 5.252159 -144.759567 945.367432
[Spine1]
19 290.604584 5.007505 0.000477 8.794286 -3.116905 17.387314 290.647736
20 290.604584 5.007505 0.000477 9.781134 -2.385080 16.468628 290.647736
21 290.604584 5.007505 0.000477 10.228068 -2.145824 16.264893 290.647736
[L_Leg01]
19 761.932007 -0.002384 -0.069261 57.960064 -24.283539 -60.580288 761.932068
20 761.932007 -0.002384 -0.069261 59.376022 -21.555634 -61.987179 761.932068
21 761.932007 -0.002384 -0.069261 60.173946 -19.375019 -63.368568 761.932068
[L_Leg02]
19 1441.140503 -0.000954 -0.000715 -0.884200 0.241524 -106.835289 1441.140503
20 1441.140503 -0.000954 -0.000715 -1.221824 0.341829 -102.205856 1441.140503
21 1441.140503 -0.000954 -0.000715 -1.404183 0.417756 -98.925865 1441.140503
[L_Leg03]
19 1686.963989 -0.000715 -0.000954 0.009231 -0.001428 107.593849 1686.963989
20 1686.963989 -0.000715 -0.000954 0.014198 -0.003773 106.096138 1686.963989
21 1686.963989 -0.000715 -0.000954 0.019226 -0.005988 104.598412 1686.963989
[L_Foot]
19 3041.570068 -30.715107 11.297464 -13.515594 15.939083 62.013283 3041.746094
20 3041.570068 -30.715107 11.297464 -16.601402 16.049677 61.240059 3041.746094
21 3041.570068 -30.715107 11.297464 -17.703209 16.160219 61.949379 3041.746094
[L_Toe1_01]
19 -188.216690 -224.732346 -21.137953 92.107620 -3.592590 -167.455536 293.899567
20 -188.216690 -224.732346 -21.137953 90.361160 -3.317131 -166.134918 293.899567
21 -188.216690 -224.732346 -21.137953 89.699348 -3.374833 -165.449051 293.899567
[L_Toe2_01]
19 200.746536 -219.926590 148.838394 -79.433281 -16.467007 -45.679447 332.896027
20 200.746536 -219.926590 148.838394 -78.160927 -14.937426 -44.462341 332.896027
21 200.746536 -219.926590 148.838394 -77.584976 -14.474025 -44.187046 332.896027
[L_Toe3_01]
19 188.832520 -219.859131 -191.078659 -106.994713 14.446106 -48.896671 347.140900
20 188.832520 -219.859131 -191.078659 -105.648018 14.791076 -45.980843 347.140900
21 188.832520 -219.859131 -191.078659 -105.094330 14.710046 -44.951866 347.140900
[planeAlignerLeft]
19 -3.997481 -598.246155 36.499123 169.098816 -87.292389 98.727097 599.371887
20 -9.869373 -602.658081 27.643526 169.252747 -89.248268 100.136368 603.372498
21 -12.037040 -606.276611 27.301714 0.000000 -89.965736 -90.001625 607.010376
[L_Toe1_02]
19 413.761139 0.000477 0.000000 0.001404 -23.448717 0.001404 413.761139
20 413.761139 0.000477 0.000000 0.001410 -22.648371 0.001410 413.761139
21 413.761139 0.000477 0.000000 0.001411 -22.529043 0.001411 413.761139
[L_Toe1_03]
19 464.317322 0.000358 -0.000089 0.010452 77.105339 0.010452 464.317322
20 464.317322 0.000358 -0.000089 0.013597 80.096466 0.013597 464.317322
21 464.317322 0.000358 -0.000089 0.014954 80.997330 0.014954 464.317322
[L_Toe2_02]
19 342.235809 -0.000477 0.000238 0.001181 -76.960457 0.001181 342.235809
20 342.235809 -0.000477 0.000238 0.001180 -77.633286 0.001180 342.235809
21 342.235809 -0.000477 0.000238 0.001180 -77.741257 0.001180 342.235809
[L_Toe2_03]
19 420.210846 -0.000715 0.000000 -179.995377 79.657860 -179.991867 420.210846
20 420.210846 -0.000715 0.000000 -179.996429 77.612175 -179.992920 420.210846
21 420.210846 -0.000715 0.000000 -179.996613 77.155922 -179.993103 420.210846
[L_Toe3_02]
19 329.270111 0.000954 0.000000 0.001177 -81.782379 0.001177 329.270111
20 329.270111 0.000954 0.000000 0.001177 -81.773239 0.001177 329.270111
21 329.270111 0.000954 0.000000 0.001177 -81.764130 0.001177 329.270111
[L_Toe3_03]
19 439.137451 -0.001907 0.000954 -179.997894 72.977150 -179.994354 439.137451
20 439.137451 -0.001907 0.000954 -179.997940 72.746834 -179.994400 439.137451
21 439.137451 -0.001907 0.000954 -179.997986 72.516495 -179.994446 439.137451
[planeLockWeightLeft]
19 -0.001068 0.000000 -0.000296 -0.011826 -0.004376 0.005620 0.001108
20 -0.001068 0.000000 -0.000296 -0.011826 -0.004376 0.005620 0.001108
21 -0.001068 0.000000 -0.000296 -0.011826 -0.004376 0.005620 0.001108
[R_Leg01]
19 761.455627 -0.001907 -0.000358 94.707146 -17.176044 78.030998 761.455688
20 761.455627 -0.001907 -0.000358 94.009308 -16.660927 80.102051 761.455688
21 761.455627 -0.001907 -0.000358 93.849327 -16.297029 80.646240 761.455688
[R_Leg02]
19 1441.140625 0.000000 -0.000238 0.162306 -0.026614 -105.176506 1441.140625
20 1441.140625 0.000000 -0.000238 0.181324 -0.024456 -100.417152 1441.140625
21 1441.140625 0.000000 -0.000238 0.183950 -0.025004 -97.712730 1441.140625
[R_Leg03]
19 1686.963989 0.000954 0.001431 -0.038838 0.010497 100.213226 1686.963989
20 1686.963989 0.000954 0.001431 -0.051327 0.011599 96.325867 1686.963989
21 1686.963989 0.000954 0.001431 -0.063862 0.011852 92.438492 1686.963989
[R_Foot]
19 3041.560059 -30.531288 -11.204481 11.177593 -22.223499 82.767380 3041.734131
20 3041.560059 -30.531288 -11.204481 10.910879 -22.054628 84.406914 3041.734131
21 3041.560059 -30.531288 -11.204481 11.021990 -21.924694 86.373955 3041.734131
[planeAlignerRight]
19 -0.571670 -607.378540 0.185623 0.000000 -89.951546 -90.004936 607.378845
20 -0.727539 -654.059082 0.241547 0.000000 -89.965736 -90.004951 654.059509
21 -0.982055 -688.347046 0.350189 0.000000 -89.951546 -90.004936 688.347839
[R_Toe1_01]
19 -188.383347 -224.864899 21.052242 90.637169 2.043628 -165.877045 294.101532
20 -188.383347 -224.864899 21.052242 90.652969 1.983068 -162.288803 294.101532
21 -188.383347 -224.864899 21.052242 90.726555 1.940846 -159.556839 294.101532
[R_Toe2_01]
19 200.637817 -220.002121 -148.787384 -101.516251 12.806189 -43.784267 332.857574
20 200.637817 -220.002121 -148.787384 -102.610703 11.947098 -47.465103 332.857574
21 200.637817 -220.002121 -148.787384 -103.205147 11.342175 -50.095249 332.857574
[R_Toe3_01]
19 188.606735 -220.092957 191.126343 -74.520859 -15.887104 -45.699268 347.192566
20 188.606735 -220.092957 191.126343 -73.429764 -14.835280 -49.383324 347.192566
21 188.606735 -220.092957 191.126343 -72.757072 -14.074293 -51.995762 347.192566
[planeLockWeightRight]
19 999.999695 0.000399 -0.000146 -0.011823 -0.004379 -0.000027 999.999695
20 999.999634 0.000411 -0.000161 -0.011823 -0.004379 -0.000027 999.999634
21 999.999634 0.000423 -0.000175 -0.011823 -0.004379 -0.000027 999.999634
[R_Toe1_02]
19 413.762085 0.000477 -0.000119 0.001416 -21.977104 0.001416 413.762085
20 413.762085 0.000477 -0.000119 0.001410 -22.683735 0.001410 413.762085
21 413.762085 0.000477 -0.000119 0.001404 -23.390310 0.001404 413.762085
[R_Toe1_03]
19 464.317810 0.000000 0.001088 0.003864 82.753242 0.005616 464.317810
20 464.317810 0.000000 0.001088 0.012830 79.503357 0.012830 464.317810
21 464.317810 0.000000 0.001088 0.010172 76.741341 0.010172 464.317810
[R_Toe2_02]
19 342.234741 -0.000954 0.000238 -0.002337 -77.443008 -0.002337 342.234741
20 342.234741 -0.000954 0.000238 -0.001635 -76.520889 -0.001635 342.234741
21 342.234741 -0.000954 0.000238 -0.000932 -75.598518 -0.000932 342.234741
[R_Toe2_03]
19 420.210846 0.000715 -0.000268 -179.992828 77.821083 -179.996353 420.210846
20 420.210846 0.000715 -0.000268 -179.990082 81.937302 -179.993576 420.210846
21 420.210846 0.000715 -0.000268 -179.983978 85.382217 -179.987488 420.210846
[R_Toe3_02]
19 329.270355 -0.000477 -0.000954 0.001177 -81.175362 0.001177 329.270355
20 329.270355 -0.000477 -0.000954 0.001178 -80.299957 0.001178 329.270355
21 329.270355 -0.000477 -0.000954 0.001179 -79.424446 0.001179 329.270355
[R_Toe3_03]
19 439.137939 0.000238 0.001431 -179.997131 75.733261 -179.993607 439.137939
20 439.137939 0.000238 0.001431 -179.995438 79.580589 -179.991913 439.137939
21 439.137939 0.000238 0.001431 -179.992615 82.791595 -179.989105 439.137939
[Rear_Leg02]
19 1162.777710 -0.029802 0.005960 19.454876 -20.470407 -95.149780 1162.777710
20 1162.777710 -0.029802 0.005960 25.452143 -17.364878 -104.230530 1162.777710
21 1162.777710 -0.029802 0.005960 28.702593 -13.147305 -110.889709 1162.777710
[Rear_Leg03]
19 607.192505 -0.013351 -0.073195 0.010197 -0.005672 74.522804 607.192505
20 607.192505 -0.013351 -0.073195 0.010053 -0.005923 77.364899 607.192505
21 607.192505 -0.013351 -0.073195 0.009958 -0.006082 79.188560 607.192505
[Rear_Leg04]
19 995.874512 -0.020504 -0.011921 -0.045517 -0.017221 81.970169 995.874573
20 995.874512 -0.020504 -0.011921 -0.043257 -0.017133 90.942627 995.874573
21 995.874512 -0.020504 -0.011921 -0.044271 -0.014310 98.330826 995.874573
[Rear_Foot]
19 3096.176270 -0.067472 -0.041425 -86.092438 62.157879 62.088509 3096.176270
20 3096.176270 -0.067472 -0.041425 -77.560814 59.709789 63.768471 3096.176270
21 3096.176270 -0.067472 -0.041425 -69.958183 58.785343 65.794708 3096.176270
[planeAlignerCenter]
19 0.581504 203.429489 -772.660583 2.425231 -0.001624 179.998306 798.992004
20 0.071255 231.902679 -766.043823 0.679229 -0.001650 179.998322 800.376160
21 -0.155238 245.535080 -761.827759 0.001662 -0.001660 179.998337 800.418030
[Rear_Toe1_01]
19 0.653352 83.966492 -371.173737 0.176016 49.180363 90.118004 380.553192
20 0.653352 83.966492 -371.173737 0.115415 42.334454 90.059128 380.553192
21 0.653352 83.966492 -371.173737 0.094658 39.642601 90.039108 380.553192
[Rear_Toe2_01]
19 178.200760 -294.826019 -362.060547 22.479784 81.672890 -48.043324 499.765686
20 178.200760 -294.826019 -362.060547 44.412426 83.983894 -26.231415 499.765686
21 178.200760 -294.826019 -362.060547 62.152832 84.605080 -8.520456 499.765686
[Rear_Toe3_01]
19 -153.359680 -308.780914 -362.060852 -25.306252 81.358116 -136.843857 499.952881
20 -153.359680 -308.780914 -362.060852 -47.363903 83.463493 -158.873627 499.952881
21 -153.359680 -308.780914 -362.060852 -63.931232 83.953438 -175.450943 499.952881
[planeLockWeightCenter]
19 0.000002 0.000432 0.000000 -0.011814 -0.004373 -0.000015 0.000432
20 0.000002 0.000407 0.000000 -0.011814 -0.004373 -0.000015 0.000407
21 0.000001 0.000381 0.000000 -0.011814 -0.004373 -0.000015 0.000381
[Rear_Toe1_02]
19 379.707825 0.194073 0.000477 -0.000767 -33.624729 0.000838 379.707855
20 379.707825 0.194073 0.000477 -0.000767 -33.624729 0.000838 379.707855
21 379.707825 0.194073 0.000477 -0.000767 -33.624729 0.000838 379.707855
[Rear_Toe1_03]
19 500.129700 0.165701 0.000119 -179.992310 78.906425 -179.995819 500.129761
20 500.129700 0.165701 0.000119 -179.989899 82.103973 -179.993408 500.129761
21 500.129700 0.165701 0.000119 -179.984222 85.301552 -179.987732 500.129761
[Rear_Toe2_02]
19 340.494507 0.000238 -0.000954 179.998825 -87.107002 179.998825 340.494507
20 340.494507 0.000238 -0.000954 179.998825 -87.158897 179.998825 340.494507
21 340.494507 0.000238 -0.000954 179.998825 -87.210701 179.998825 340.494507
[Rear_Toe2_03]
19 433.103577 0.000000 0.000238 -179.996292 54.336994 -179.999969 433.103546
20 433.103577 0.000000 0.000238 -179.996246 55.187534 -179.999908 433.103546
21 433.103577 0.000000 0.000238 -179.996231 55.377346 -179.999893 433.103546
[Rear_Toe3_02]
19 340.494141 -0.000358 -0.000477 -179.994171 -87.137207 -179.994171 340.494171
20 340.494141 -0.000358 -0.000477 -179.994171 -87.197258 -179.994171 340.494171
21 340.494141 -0.000358 -0.000477 -179.994171 -87.257263 -179.994171 340.494171
[Rear_Toe3_03]
19 433.103577 0.001431 -0.000238 179.992477 54.443027 179.999832 433.103546
20 433.103577 0.001431 -0.000238 179.992401 55.394100 179.999725 433.103546
21 433.103577 0.001431 -0.000238 179.992371 55.623222 179.999695 433.103546
[Back_Bone]
19 1312.175781 -701.934692 0.000954 -2.584670 2.268507 -85.456413 1488.125488
20 1312.175781 -701.934692 0.000954 -2.727916 1.847731 -84.573158 1488.125488
21 1312.175781 -701.934692 0.000954 -2.876992 1.429054 -84.242424 1488.125488
[Head]
19 1406.159424 809.709290 0.001431 -1.157061 2.257308 4.855202 1622.625488
20 1406.159424 809.709290 0.001431 -1.316719 2.404656 3.685002 1622.625488
21 1406.159424 809.709290 0.001431 -1.603146 2.421352 3.057011 1622.625488
[Motor_Bone]
19 1158.364380 -417.834747 0.000477 5.387143 -2.893412 -108.880936 1231.419434
20 1158.364380 -417.834747 0.000477 2.257025 -1.718274 -107.704185 1231.419434
21 1158.364380 -417.834747 0.000477 -2.687916 0.131922 -105.851540 1231.419434
[Ping_Mechanism]
19 1264.763062 -458.589478 5.218081 0.000103 -0.000053 82.120995 1345.346436
20 1270.743774 -461.977539 0.728711 0.000103 -0.000053 82.120995 1352.114380
21 1273.028931 -463.487549 -1.178810 0.000103 -0.000053 82.120995 1354.778564
[BN_LookIK]
19 193.241119 1380.371704 -0.002861 0.000000 89.965736 -31.038179 1393.832153
20 193.241119 1380.371704 -0.002861 0.000000 89.965736 -31.038179 1393.832153
21 193.241119 1380.371704 -0.002861 0.000000 89.965736 -31.038179 1393.832153
[bottomMouth]
19 -435.092926 615.759399 -0.000954 -0.000022 0.000016 73.527184 753.966492
20 -435.092926 615.759399 -0.000954 -0.000022 0.000016 73.527184 753.966492
21 -435.092926 615.759399 -0.000954 -0.000022 0.000016 73.527184 753.966492
[L_Mouth01]
19 554.440979 7.658243 838.222046 150.204178 23.759130 109.605339 1005.027161
20 554.440979 7.658243 838.222046 150.204178 23.759130 109.605339 1005.027161
21 554.440979 7.658243 838.222046 150.204178 23.759130 109.605339 1005.027161
[L_mouthFront]
19 551.629089 934.514771 339.150421 0.000081 2.804060 79.119301 1136.941284
20 551.629089 934.514771 339.150421 0.000081 2.804060 79.119301 1136.941284
21 551.629089 934.514771 339.150421 0.000081 2.804060 79.119301 1136.941284
[mouthGun]
19 55.332661 1627.420898 0.000000 0.000023 0.000009 -11.038128 1628.361328
20 55.332661 1627.420898 0.000000 0.000023 0.000009 -11.038128 1628.361328
21 55.332661 1627.420898 0.000000 0.000023 0.000009 -11.038128 1628.361328
[R_Mouth01]
19 554.442383 7.659197 -838.223938 29.795891 -23.759109 109.605331 1005.029541
20 554.442383 7.659197 -838.223938 29.795891 -23.759109 109.605331 1005.029541
21 554.442383 7.659197 -838.223938 29.795891 -23.759109 109.605331 1005.029541
[R_mouthFront]
19 551.629089 934.514282 -339.151367 0.000029 -2.803930 79.119133 1136.941162
20 551.629089 934.514282 -339.151367 0.000029 -2.803930 79.119133 1136.941162
21 551.629089 934.514282 -339.151367 0.000029 -2.803930 79.119133 1136.941162
[TopMouth]
19 461.269867 -56.106091 -0.008583 -0.000059 -0.000268 92.025169 464.669525
20 461.269867 -56.106091 -0.008583 -0.000059 -0.000268 92.025169 464.669525
21 461.269867 -56.106091 -0.008583 -0.000059 -0.000268 92.025169 464.669525
[weapon_bone]
19 -987.239868 1448.372803 0.001431 0.000000 89.965736 -31.038221 1752.833740
20 -987.239868 1448.372803 0.001431 0.000000 89.965736 -31.038221 1752.833740
21 -987.239868 1448.372803 0.001431 0.000000 89.965736 -31.038221 1752.833740
